<?xml version="1.0" encoding="UTF-8" standalone="no"?>
<!DOCTYPE svg PUBLIC "-//W3C//DTD SVG 1.1//EN" "http://www.w3.org/Graphics/SVG/1.1/DTD/svg11.dtd">
<svg width="100%" height="100%" viewBox="0 0 800 240" version="1.1" xmlns="http://www.w3.org/2000/svg" xmlns:xlink="http://www.w3.org/1999/xlink" xml:space="preserve" xmlns:serif="http://www.serif.com/" style="fill-rule:evenodd;clip-rule:evenodd;stroke-linejoin:round;stroke-miterlimit:2;">
    <g id="dark_banner" transform="matrix(1,0,0,0.5,0,0)">
        <rect x="0" y="0" width="800" height="480" style="fill:rgb(13,17,23);"/>
        <g transform="matrix(1,0,0,1,0,-4.734947)">
            <g transform="matrix(1,0,0,2,-14.094536,31.09409)">
                <g transform="matrix(125,0,0,125,160.692357,118.067583)">
                    <path d="M0.046,-0.56L0.189,-0.56L0.189,-0L0.046,-0L0.046,-0.56ZM0.189,-0.274L0.174,-0.377C0.174,-0.394 0.176,-0.414 0.179,-0.437C0.182,-0.46 0.19,-0.482 0.203,-0.503C0.215,-0.523 0.234,-0.541 0.26,-0.555C0.286,-0.569 0.321,-0.576 0.366,-0.576L0.366,-0.436C0.327,-0.436 0.294,-0.432 0.268,-0.423C0.241,-0.414 0.222,-0.399 0.208,-0.376C0.196,-0.353 0.189,-0.319 0.189,-0.274Z" style="fill:white;fill-rule:nonzero;"/>
                </g>
                <g transform="matrix(125,0,0,125,205.442357,118.067583)">
                    <path d="M0.176,-0.232L0.176,-0.348L0.469,-0.348L0.423,-0.321C0.426,-0.34 0.424,-0.36 0.417,-0.38C0.411,-0.399 0.398,-0.416 0.381,-0.428C0.364,-0.442 0.34,-0.448 0.311,-0.448C0.273,-0.448 0.241,-0.435 0.213,-0.411C0.186,-0.386 0.174,-0.348 0.176,-0.298L0.025,-0.298C0.028,-0.359 0.043,-0.409 0.07,-0.451C0.097,-0.491 0.131,-0.523 0.173,-0.544C0.215,-0.565 0.261,-0.576 0.311,-0.576C0.349,-0.576 0.385,-0.568 0.419,-0.553C0.453,-0.538 0.482,-0.515 0.507,-0.486C0.532,-0.457 0.55,-0.421 0.561,-0.378C0.572,-0.335 0.574,-0.287 0.566,-0.232L0.176,-0.232ZM0.311,0.016C0.259,0.016 0.213,0.006 0.173,-0.015C0.132,-0.036 0.1,-0.065 0.075,-0.102C0.05,-0.139 0.035,-0.183 0.028,-0.232L0.176,-0.232C0.181,-0.197 0.195,-0.169 0.215,-0.146C0.237,-0.123 0.268,-0.112 0.311,-0.112C0.338,-0.112 0.361,-0.118 0.379,-0.131C0.397,-0.144 0.41,-0.159 0.417,-0.178L0.568,-0.178C0.56,-0.139 0.544,-0.105 0.521,-0.076C0.498,-0.048 0.468,-0.025 0.432,-0.009C0.397,0.008 0.356,0.016 0.311,0.016Z" style="fill:white;fill-rule:nonzero;"/>
                </g>
                <g transform="matrix(125,0,0,125,280.192357,118.067583)">
                    <path d="M0.046,-0.56L0.189,-0.56L0.189,-0L0.046,-0L0.046,-0.56ZM0.189,-0.274L0.173,-0.389C0.173,-0.406 0.176,-0.426 0.181,-0.447C0.186,-0.468 0.196,-0.489 0.208,-0.509C0.222,-0.528 0.24,-0.544 0.263,-0.557C0.286,-0.57 0.315,-0.576 0.351,-0.576C0.384,-0.576 0.414,-0.569 0.44,-0.554C0.465,-0.539 0.485,-0.515 0.5,-0.481C0.515,-0.448 0.522,-0.402 0.522,-0.345L0.522,-0L0.379,-0L0.379,-0.332C0.379,-0.354 0.378,-0.374 0.376,-0.393C0.373,-0.411 0.367,-0.425 0.358,-0.436C0.349,-0.447 0.333,-0.452 0.311,-0.452C0.294,-0.452 0.277,-0.446 0.258,-0.435C0.239,-0.424 0.222,-0.405 0.209,-0.38C0.196,-0.354 0.189,-0.319 0.189,-0.274ZM0.522,-0.274L0.484,-0.389C0.484,-0.406 0.488,-0.426 0.495,-0.447C0.502,-0.468 0.514,-0.489 0.53,-0.509C0.546,-0.528 0.567,-0.544 0.592,-0.557C0.617,-0.57 0.648,-0.576 0.684,-0.576C0.717,-0.576 0.747,-0.569 0.772,-0.554C0.798,-0.539 0.818,-0.515 0.833,-0.481C0.848,-0.448 0.855,-0.402 0.855,-0.345L0.855,-0L0.712,-0L0.712,-0.332C0.712,-0.354 0.711,-0.374 0.709,-0.393C0.706,-0.411 0.7,-0.425 0.691,-0.436C0.682,-0.447 0.666,-0.452 0.644,-0.452C0.627,-0.452 0.61,-0.446 0.591,-0.435C0.572,-0.424 0.555,-0.405 0.542,-0.38C0.529,-0.354 0.522,-0.319 0.522,-0.274Z" style="fill:white;fill-rule:nonzero;"/>
                </g>
                <g transform="matrix(125,0,0,125,392.067357,118.067583)">
                    <path d="M0.088,-0.56L0.231,-0.56L0.231,-0L0.088,-0L0.088,-0.56ZM0.048,-0.76L0.201,-0.795L0.236,-0.642L0.083,-0.607L0.048,-0.76Z" style="fill:white;fill-rule:nonzero;"/>
                </g>
                <g transform="matrix(125,0,0,125,427.567357,118.067583)">
                    <path d="M0.046,-0.56L0.189,-0.56L0.189,-0.474C0.196,-0.492 0.207,-0.509 0.222,-0.524C0.236,-0.539 0.255,-0.552 0.279,-0.561C0.302,-0.571 0.331,-0.576 0.366,-0.576C0.402,-0.576 0.434,-0.569 0.462,-0.554C0.49,-0.539 0.512,-0.515 0.528,-0.481C0.544,-0.448 0.552,-0.402 0.552,-0.345L0.552,-0L0.409,-0L0.409,-0.332C0.409,-0.354 0.407,-0.374 0.404,-0.393C0.401,-0.411 0.393,-0.425 0.382,-0.436C0.37,-0.447 0.351,-0.452 0.326,-0.452C0.306,-0.452 0.285,-0.446 0.264,-0.435C0.243,-0.424 0.225,-0.405 0.21,-0.38C0.196,-0.354 0.189,-0.319 0.189,-0.274L0.189,-0L0.046,-0L0.046,-0.56Z" style="fill:white;fill-rule:nonzero;"/>
                </g>
                <g transform="matrix(125,0,0,125,502.317357,118.067583)">
                    <path d="M0.277,0.016C0.224,0.016 0.179,0.003 0.142,-0.022C0.104,-0.047 0.075,-0.081 0.055,-0.126C0.035,-0.171 0.025,-0.222 0.025,-0.279C0.025,-0.337 0.035,-0.388 0.055,-0.433C0.075,-0.478 0.104,-0.513 0.142,-0.538C0.179,-0.563 0.224,-0.576 0.277,-0.576C0.314,-0.576 0.346,-0.569 0.372,-0.556C0.399,-0.543 0.42,-0.523 0.437,-0.498L0.437,-0.061C0.421,-0.037 0.4,-0.018 0.374,-0.005C0.349,0.009 0.316,0.016 0.277,0.016ZM0.302,-0.112C0.333,-0.112 0.358,-0.12 0.378,-0.135C0.398,-0.149 0.413,-0.17 0.422,-0.195C0.432,-0.22 0.437,-0.248 0.437,-0.279C0.437,-0.31 0.432,-0.339 0.422,-0.364C0.413,-0.39 0.398,-0.411 0.378,-0.425C0.358,-0.44 0.333,-0.448 0.302,-0.448C0.273,-0.448 0.249,-0.44 0.23,-0.425C0.21,-0.411 0.195,-0.39 0.185,-0.364C0.176,-0.339 0.171,-0.31 0.171,-0.279C0.171,-0.248 0.176,-0.22 0.185,-0.195C0.195,-0.17 0.21,-0.149 0.23,-0.135C0.249,-0.12 0.273,-0.112 0.302,-0.112ZM0.437,-0L0.437,-0.75L0.58,-0.75L0.58,-0L0.437,-0Z" style="fill:white;fill-rule:nonzero;"/>
                </g>
                <g transform="matrix(125,0,0,125,581.067357,118.067583)">
                    <path d="M0.248,-0L0.398,-0.56L0.551,-0.56L0.381,-0L0.248,-0ZM0.087,0.2L0.087,0.078L0.211,0.078L0.255,-0.048L0.396,-0.048L0.316,0.2L0.087,0.2ZM0.188,-0L0.018,-0.56L0.171,-0.56L0.321,-0L0.188,-0Z" style="fill:white;fill-rule:nonzero;"/>
                </g>
                <g transform="matrix(125,0,0,125,652.192357,118.067583)">
                </g>
            </g>
            <g transform="matrix(1,0,0,2,-422.412109,-34.502717)">
                <g transform="matrix(20.833333,0,0,20.833333,603.60368,212.081297)">
                    <path d="M0.226,-0C0.198,-0 0.175,-0.004 0.155,-0.011C0.136,-0.018 0.121,-0.031 0.111,-0.05C0.102,-0.069 0.097,-0.097 0.097,-0.132L0.097,-0.42L0.011,-0.42L0.011,-0.496L0.097,-0.496L0.097,-0.617L0.187,-0.617L0.187,-0.496L0.327,-0.496L0.327,-0.42L0.187,-0.42L0.187,-0.146C0.187,-0.125 0.188,-0.109 0.192,-0.099C0.195,-0.089 0.202,-0.083 0.213,-0.081C0.223,-0.078 0.239,-0.077 0.259,-0.077L0.32,-0.077L0.32,-0L0.226,-0Z" style="fill:white;fill-rule:nonzero;"/>
                </g>
                <g transform="matrix(20.833333,0,0,20.833333,610.687013,212.081297)">
                    <path d="M0.218,0.012C0.178,0.012 0.144,0.005 0.117,-0.009C0.09,-0.023 0.069,-0.041 0.056,-0.064C0.042,-0.087 0.035,-0.111 0.035,-0.137C0.035,-0.191 0.055,-0.232 0.094,-0.26C0.133,-0.289 0.184,-0.303 0.247,-0.303C0.275,-0.303 0.3,-0.301 0.323,-0.297C0.346,-0.293 0.365,-0.288 0.379,-0.283L0.379,-0.305C0.379,-0.348 0.368,-0.38 0.346,-0.401C0.323,-0.423 0.294,-0.434 0.256,-0.434C0.226,-0.434 0.199,-0.427 0.177,-0.415C0.154,-0.402 0.14,-0.381 0.135,-0.351L0.045,-0.351C0.049,-0.386 0.061,-0.416 0.082,-0.439C0.102,-0.462 0.128,-0.48 0.158,-0.491C0.189,-0.502 0.221,-0.508 0.256,-0.508C0.327,-0.508 0.38,-0.49 0.416,-0.453C0.451,-0.416 0.469,-0.367 0.469,-0.305L0.469,-0.156C0.469,-0.132 0.471,-0.114 0.474,-0.103C0.477,-0.092 0.482,-0.085 0.489,-0.082C0.497,-0.08 0.507,-0.078 0.519,-0.078L0.526,-0.078L0.526,-0L0.507,-0C0.474,-0 0.448,-0.005 0.427,-0.016C0.406,-0.027 0.392,-0.048 0.385,-0.08C0.37,-0.054 0.348,-0.032 0.321,-0.015C0.294,0.003 0.26,0.012 0.218,0.012ZM0.232,-0.061C0.261,-0.061 0.287,-0.069 0.308,-0.083C0.329,-0.098 0.345,-0.117 0.357,-0.141C0.369,-0.165 0.376,-0.19 0.377,-0.217C0.362,-0.221 0.343,-0.226 0.321,-0.23C0.299,-0.233 0.277,-0.235 0.255,-0.235C0.21,-0.235 0.177,-0.227 0.157,-0.209C0.136,-0.191 0.126,-0.169 0.126,-0.142C0.126,-0.119 0.135,-0.099 0.154,-0.084C0.172,-0.069 0.198,-0.061 0.232,-0.061Z" style="fill:white;fill-rule:nonzero;"/>
                </g>
                <g transform="matrix(20.833333,0,0,20.833333,622.249513,212.081297)">
                    <path d="M0.253,0.012C0.193,0.012 0.142,-0.002 0.101,-0.03C0.06,-0.059 0.037,-0.1 0.03,-0.155L0.123,-0.155C0.128,-0.126 0.142,-0.104 0.166,-0.087C0.189,-0.07 0.219,-0.062 0.256,-0.062C0.29,-0.062 0.317,-0.069 0.336,-0.084C0.355,-0.099 0.364,-0.117 0.364,-0.14C0.364,-0.157 0.358,-0.17 0.347,-0.179C0.335,-0.188 0.314,-0.195 0.282,-0.2C0.27,-0.203 0.256,-0.206 0.242,-0.208C0.227,-0.211 0.214,-0.213 0.201,-0.215C0.178,-0.22 0.156,-0.227 0.133,-0.238C0.111,-0.249 0.093,-0.264 0.078,-0.283C0.064,-0.302 0.056,-0.327 0.056,-0.358C0.056,-0.4 0.073,-0.436 0.105,-0.465C0.138,-0.494 0.182,-0.508 0.239,-0.508C0.294,-0.508 0.339,-0.496 0.375,-0.471C0.411,-0.446 0.431,-0.407 0.436,-0.354L0.347,-0.354C0.345,-0.382 0.333,-0.403 0.313,-0.415C0.293,-0.428 0.268,-0.434 0.238,-0.434C0.209,-0.434 0.186,-0.427 0.168,-0.415C0.149,-0.402 0.14,-0.386 0.14,-0.365C0.14,-0.329 0.167,-0.306 0.221,-0.295C0.229,-0.294 0.237,-0.293 0.246,-0.291C0.256,-0.29 0.265,-0.288 0.274,-0.286C0.283,-0.285 0.292,-0.283 0.299,-0.282C0.315,-0.28 0.332,-0.276 0.349,-0.271C0.366,-0.266 0.383,-0.258 0.398,-0.248C0.414,-0.239 0.426,-0.226 0.436,-0.21C0.445,-0.193 0.45,-0.173 0.45,-0.147C0.45,-0.116 0.442,-0.089 0.426,-0.065C0.41,-0.041 0.388,-0.022 0.358,-0.009C0.329,0.005 0.294,0.012 0.253,0.012Z" style="fill:white;fill-rule:nonzero;"/>
                </g>
                <g transform="matrix(20.833333,0,0,20.833333,632.207847,212.081297)">
                    <path d="M0.226,-0C0.198,-0 0.175,-0.004 0.155,-0.011C0.136,-0.018 0.121,-0.031 0.111,-0.05C0.102,-0.069 0.097,-0.097 0.097,-0.132L0.097,-0.42L0.011,-0.42L0.011,-0.496L0.097,-0.496L0.097,-0.617L0.187,-0.617L0.187,-0.496L0.327,-0.496L0.327,-0.42L0.187,-0.42L0.187,-0.146C0.187,-0.125 0.188,-0.109 0.192,-0.099C0.195,-0.089 0.202,-0.083 0.213,-0.081C0.223,-0.078 0.239,-0.077 0.259,-0.077L0.32,-0.077L0.32,-0L0.226,-0Z" style="fill:white;fill-rule:nonzero;"/>
                </g>
                <g transform="matrix(20.833333,0,0,20.833333,639.187013,212.081297)">
                    <path d="M0.278,0.012C0.23,0.012 0.187,0.001 0.15,-0.021C0.113,-0.042 0.084,-0.072 0.063,-0.111C0.042,-0.15 0.032,-0.195 0.032,-0.247C0.032,-0.3 0.042,-0.345 0.063,-0.384C0.084,-0.423 0.113,-0.454 0.15,-0.475C0.187,-0.497 0.23,-0.508 0.279,-0.508C0.328,-0.508 0.369,-0.497 0.404,-0.476C0.44,-0.454 0.467,-0.426 0.486,-0.39C0.505,-0.355 0.514,-0.316 0.514,-0.274L0.514,-0.253C0.514,-0.245 0.514,-0.237 0.513,-0.228L0.099,-0.228L0.099,-0.294L0.425,-0.294C0.423,-0.338 0.408,-0.371 0.38,-0.396C0.353,-0.421 0.318,-0.433 0.277,-0.433C0.249,-0.433 0.223,-0.427 0.199,-0.414C0.175,-0.402 0.156,-0.384 0.142,-0.359C0.127,-0.335 0.12,-0.305 0.12,-0.269L0.12,-0.242C0.12,-0.202 0.127,-0.17 0.142,-0.143C0.157,-0.116 0.176,-0.096 0.2,-0.083C0.224,-0.07 0.25,-0.063 0.277,-0.063C0.311,-0.063 0.339,-0.071 0.361,-0.086C0.384,-0.102 0.4,-0.123 0.411,-0.149L0.5,-0.149C0.492,-0.119 0.477,-0.091 0.457,-0.067C0.437,-0.042 0.412,-0.023 0.382,-0.009C0.351,0.005 0.317,0.012 0.278,0.012Z" style="fill:white;fill-rule:nonzero;"/>
                </g>
                <g transform="matrix(20.833333,0,0,20.833333,650.79118,212.081297)">
                </g>
                <g transform="matrix(20.833333,0,0,20.833333,657.187013,212.081297)">
                    <path d="M0.565,-0L0.103,-0.632L0.103,-0.7L0.512,-0.7L0.512,-0.624L0.153,-0.624L0.191,-0.65L0.665,-0L0.565,-0ZM0.292,0.005C0.244,0.005 0.202,-0.004 0.165,-0.022C0.128,-0.04 0.099,-0.066 0.078,-0.1C0.057,-0.133 0.046,-0.172 0.046,-0.217C0.046,-0.286 0.068,-0.339 0.113,-0.377C0.157,-0.414 0.215,-0.433 0.288,-0.433L0.314,-0.433L0.328,-0.366L0.294,-0.366C0.247,-0.366 0.208,-0.353 0.179,-0.327C0.149,-0.301 0.135,-0.265 0.135,-0.218C0.135,-0.188 0.141,-0.161 0.155,-0.139C0.168,-0.117 0.187,-0.1 0.21,-0.088C0.234,-0.076 0.262,-0.07 0.293,-0.07C0.326,-0.07 0.355,-0.076 0.38,-0.089C0.406,-0.101 0.428,-0.119 0.448,-0.141C0.467,-0.163 0.484,-0.188 0.497,-0.217C0.511,-0.246 0.521,-0.277 0.529,-0.31C0.537,-0.342 0.543,-0.376 0.545,-0.409L0.628,-0.409C0.624,-0.365 0.617,-0.323 0.606,-0.282C0.594,-0.241 0.578,-0.203 0.559,-0.169C0.539,-0.134 0.517,-0.103 0.49,-0.077C0.464,-0.051 0.434,-0.031 0.401,-0.017C0.367,-0.002 0.331,0.005 0.292,0.005Z" style="fill:white;fill-rule:nonzero;"/>
                </g>
                <g transform="matrix(20.833333,0,0,20.833333,671.91618,212.081297)">
                </g>
                <g transform="matrix(20.833333,0,0,20.833333,678.312013,212.081297)">
                    <path d="M0.253,0.012C0.193,0.012 0.142,-0.002 0.101,-0.03C0.06,-0.059 0.037,-0.1 0.03,-0.155L0.123,-0.155C0.128,-0.126 0.142,-0.104 0.166,-0.087C0.189,-0.07 0.219,-0.062 0.256,-0.062C0.29,-0.062 0.317,-0.069 0.336,-0.084C0.355,-0.099 0.364,-0.117 0.364,-0.14C0.364,-0.157 0.358,-0.17 0.347,-0.179C0.335,-0.188 0.314,-0.195 0.282,-0.2C0.27,-0.203 0.256,-0.206 0.242,-0.208C0.227,-0.211 0.214,-0.213 0.201,-0.215C0.178,-0.22 0.156,-0.227 0.133,-0.238C0.111,-0.249 0.093,-0.264 0.078,-0.283C0.064,-0.302 0.056,-0.327 0.056,-0.358C0.056,-0.4 0.073,-0.436 0.105,-0.465C0.138,-0.494 0.182,-0.508 0.239,-0.508C0.294,-0.508 0.339,-0.496 0.375,-0.471C0.411,-0.446 0.431,-0.407 0.436,-0.354L0.347,-0.354C0.345,-0.382 0.333,-0.403 0.313,-0.415C0.293,-0.428 0.268,-0.434 0.238,-0.434C0.209,-0.434 0.186,-0.427 0.168,-0.415C0.149,-0.402 0.14,-0.386 0.14,-0.365C0.14,-0.329 0.167,-0.306 0.221,-0.295C0.229,-0.294 0.237,-0.293 0.246,-0.291C0.256,-0.29 0.265,-0.288 0.274,-0.286C0.283,-0.285 0.292,-0.283 0.299,-0.282C0.315,-0.28 0.332,-0.276 0.349,-0.271C0.366,-0.266 0.383,-0.258 0.398,-0.248C0.414,-0.239 0.426,-0.226 0.436,-0.21C0.445,-0.193 0.45,-0.173 0.45,-0.147C0.45,-0.116 0.442,-0.089 0.426,-0.065C0.41,-0.041 0.388,-0.022 0.358,-0.009C0.329,0.005 0.294,0.012 0.253,0.012Z" style="fill:white;fill-rule:nonzero;"/>
                </g>
                <g transform="matrix(20.833333,0,0,20.833333,688.270347,212.081297)">
                    <path d="M0.226,-0C0.198,-0 0.175,-0.004 0.155,-0.011C0.136,-0.018 0.121,-0.031 0.111,-0.05C0.102,-0.069 0.097,-0.097 0.097,-0.132L0.097,-0.42L0.011,-0.42L0.011,-0.496L0.097,-0.496L0.097,-0.617L0.187,-0.617L0.187,-0.496L0.327,-0.496L0.327,-0.42L0.187,-0.42L0.187,-0.146C0.187,-0.125 0.188,-0.109 0.192,-0.099C0.195,-0.089 0.202,-0.083 0.213,-0.081C0.223,-0.078 0.239,-0.077 0.259,-0.077L0.32,-0.077L0.32,-0L0.226,-0Z" style="fill:white;fill-rule:nonzero;"/>
                </g>
                <g transform="matrix(20.833333,0,0,20.833333,695.35368,212.081297)">
                    <path d="M0.218,0.012C0.178,0.012 0.144,0.005 0.117,-0.009C0.09,-0.023 0.069,-0.041 0.056,-0.064C0.042,-0.087 0.035,-0.111 0.035,-0.137C0.035,-0.191 0.055,-0.232 0.094,-0.26C0.133,-0.289 0.184,-0.303 0.247,-0.303C0.275,-0.303 0.3,-0.301 0.323,-0.297C0.346,-0.293 0.365,-0.288 0.379,-0.283L0.379,-0.305C0.379,-0.348 0.368,-0.38 0.346,-0.401C0.323,-0.423 0.294,-0.434 0.256,-0.434C0.226,-0.434 0.199,-0.427 0.177,-0.415C0.154,-0.402 0.14,-0.381 0.135,-0.351L0.045,-0.351C0.049,-0.386 0.061,-0.416 0.082,-0.439C0.102,-0.462 0.128,-0.48 0.158,-0.491C0.189,-0.502 0.221,-0.508 0.256,-0.508C0.327,-0.508 0.38,-0.49 0.416,-0.453C0.451,-0.416 0.469,-0.367 0.469,-0.305L0.469,-0.156C0.469,-0.132 0.471,-0.114 0.474,-0.103C0.477,-0.092 0.482,-0.085 0.489,-0.082C0.497,-0.08 0.507,-0.078 0.519,-0.078L0.526,-0.078L0.526,-0L0.507,-0C0.474,-0 0.448,-0.005 0.427,-0.016C0.406,-0.027 0.392,-0.048 0.385,-0.08C0.37,-0.054 0.348,-0.032 0.321,-0.015C0.294,0.003 0.26,0.012 0.218,0.012ZM0.232,-0.061C0.261,-0.061 0.287,-0.069 0.308,-0.083C0.329,-0.098 0.345,-0.117 0.357,-0.141C0.369,-0.165 0.376,-0.19 0.377,-0.217C0.362,-0.221 0.343,-0.226 0.321,-0.23C0.299,-0.233 0.277,-0.235 0.255,-0.235C0.21,-0.235 0.177,-0.227 0.157,-0.209C0.136,-0.191 0.126,-0.169 0.126,-0.142C0.126,-0.119 0.135,-0.099 0.154,-0.084C0.172,-0.069 0.198,-0.061 0.232,-0.061Z" style="fill:white;fill-rule:nonzero;"/>
                </g>
                <g transform="matrix(20.833333,0,0,20.833333,706.91618,212.081297)">
                    <path d="M0.06,-0L0.06,-0.496L0.15,-0.496L0.15,-0.414C0.166,-0.443 0.189,-0.466 0.218,-0.483C0.248,-0.5 0.281,-0.508 0.318,-0.508C0.376,-0.508 0.423,-0.49 0.458,-0.454C0.493,-0.418 0.51,-0.363 0.51,-0.288L0.51,-0L0.42,-0L0.42,-0.279C0.42,-0.33 0.41,-0.368 0.389,-0.393C0.367,-0.418 0.336,-0.431 0.295,-0.431C0.253,-0.431 0.219,-0.416 0.191,-0.386C0.163,-0.355 0.15,-0.313 0.15,-0.257L0.15,-0L0.06,-0Z" style="fill:white;fill-rule:nonzero;"/>
                </g>
                <g transform="matrix(20.833333,0,0,20.833333,718.770347,212.081297)">
                    <path d="M0.277,0.012C0.228,0.012 0.185,0.001 0.148,-0.022C0.111,-0.045 0.083,-0.076 0.062,-0.115C0.041,-0.155 0.031,-0.199 0.031,-0.249C0.031,-0.299 0.041,-0.343 0.062,-0.383C0.083,-0.421 0.112,-0.452 0.148,-0.475C0.185,-0.497 0.228,-0.508 0.277,-0.508C0.318,-0.508 0.354,-0.5 0.385,-0.483C0.416,-0.467 0.439,-0.444 0.456,-0.415L0.456,-0.72L0.546,-0.72L0.546,-0L0.456,-0L0.456,-0.081C0.44,-0.057 0.418,-0.036 0.389,-0.017C0.359,0.002 0.322,0.012 0.277,0.012ZM0.289,-0.066C0.321,-0.066 0.35,-0.074 0.375,-0.089C0.399,-0.105 0.419,-0.126 0.433,-0.153C0.447,-0.18 0.454,-0.212 0.454,-0.248C0.454,-0.284 0.447,-0.316 0.433,-0.343C0.419,-0.371 0.399,-0.392 0.375,-0.407C0.35,-0.422 0.321,-0.43 0.289,-0.43C0.257,-0.43 0.228,-0.422 0.203,-0.407C0.178,-0.392 0.158,-0.371 0.144,-0.343C0.13,-0.316 0.123,-0.284 0.123,-0.248C0.123,-0.212 0.13,-0.18 0.144,-0.153C0.158,-0.126 0.178,-0.105 0.203,-0.089C0.228,-0.074 0.257,-0.066 0.289,-0.066Z" style="fill:white;fill-rule:nonzero;"/>
                </g>
                <g transform="matrix(20.833333,0,0,20.833333,731.10368,212.081297)">
                    <path d="M0.218,0.012C0.178,0.012 0.144,0.005 0.117,-0.009C0.09,-0.023 0.069,-0.041 0.056,-0.064C0.042,-0.087 0.035,-0.111 0.035,-0.137C0.035,-0.191 0.055,-0.232 0.094,-0.26C0.133,-0.289 0.184,-0.303 0.247,-0.303C0.275,-0.303 0.3,-0.301 0.323,-0.297C0.346,-0.293 0.365,-0.288 0.379,-0.283L0.379,-0.305C0.379,-0.348 0.368,-0.38 0.346,-0.401C0.323,-0.423 0.294,-0.434 0.256,-0.434C0.226,-0.434 0.199,-0.427 0.177,-0.415C0.154,-0.402 0.14,-0.381 0.135,-0.351L0.045,-0.351C0.049,-0.386 0.061,-0.416 0.082,-0.439C0.102,-0.462 0.128,-0.48 0.158,-0.491C0.189,-0.502 0.221,-0.508 0.256,-0.508C0.327,-0.508 0.38,-0.49 0.416,-0.453C0.451,-0.416 0.469,-0.367 0.469,-0.305L0.469,-0.156C0.469,-0.132 0.471,-0.114 0.474,-0.103C0.477,-0.092 0.482,-0.085 0.489,-0.082C0.497,-0.08 0.507,-0.078 0.519,-0.078L0.526,-0.078L0.526,-0L0.507,-0C0.474,-0 0.448,-0.005 0.427,-0.016C0.406,-0.027 0.392,-0.048 0.385,-0.08C0.37,-0.054 0.348,-0.032 0.321,-0.015C0.294,0.003 0.26,0.012 0.218,0.012ZM0.232,-0.061C0.261,-0.061 0.287,-0.069 0.308,-0.083C0.329,-0.098 0.345,-0.117 0.357,-0.141C0.369,-0.165 0.376,-0.19 0.377,-0.217C0.362,-0.221 0.343,-0.226 0.321,-0.23C0.299,-0.233 0.277,-0.235 0.255,-0.235C0.21,-0.235 0.177,-0.227 0.157,-0.209C0.136,-0.191 0.126,-0.169 0.126,-0.142C0.126,-0.119 0.135,-0.099 0.154,-0.084C0.172,-0.069 0.198,-0.061 0.232,-0.061Z" style="fill:white;fill-rule:nonzero;"/>
                </g>
                <g transform="matrix(20.833333,0,0,20.833333,742.874513,212.081297)">
                    <path d="M0.06,-0L0.06,-0.496L0.15,-0.496L0.15,-0.418C0.161,-0.444 0.176,-0.464 0.196,-0.478C0.216,-0.492 0.239,-0.5 0.267,-0.5L0.341,-0.5L0.341,-0.416L0.258,-0.416C0.237,-0.416 0.218,-0.41 0.201,-0.398C0.185,-0.386 0.172,-0.367 0.163,-0.341C0.154,-0.314 0.15,-0.28 0.15,-0.236L0.15,-0L0.06,-0Z" style="fill:white;fill-rule:nonzero;"/>
                </g>
                <g transform="matrix(20.833333,0,0,20.833333,749.770347,212.081297)">
                    <path d="M0.277,0.012C0.228,0.012 0.185,0.001 0.148,-0.022C0.111,-0.045 0.083,-0.076 0.062,-0.115C0.041,-0.155 0.031,-0.199 0.031,-0.249C0.031,-0.299 0.041,-0.343 0.062,-0.383C0.083,-0.421 0.112,-0.452 0.148,-0.475C0.185,-0.497 0.228,-0.508 0.277,-0.508C0.318,-0.508 0.354,-0.5 0.385,-0.483C0.416,-0.467 0.439,-0.444 0.456,-0.415L0.456,-0.72L0.546,-0.72L0.546,-0L0.456,-0L0.456,-0.081C0.44,-0.057 0.418,-0.036 0.389,-0.017C0.359,0.002 0.322,0.012 0.277,0.012ZM0.289,-0.066C0.321,-0.066 0.35,-0.074 0.375,-0.089C0.399,-0.105 0.419,-0.126 0.433,-0.153C0.447,-0.18 0.454,-0.212 0.454,-0.248C0.454,-0.284 0.447,-0.316 0.433,-0.343C0.419,-0.371 0.399,-0.392 0.375,-0.407C0.35,-0.422 0.321,-0.43 0.289,-0.43C0.257,-0.43 0.228,-0.422 0.203,-0.407C0.178,-0.392 0.158,-0.371 0.144,-0.343C0.13,-0.316 0.123,-0.284 0.123,-0.248C0.123,-0.212 0.13,-0.18 0.144,-0.153C0.158,-0.126 0.178,-0.105 0.203,-0.089C0.228,-0.074 0.257,-0.066 0.289,-0.066Z" style="fill:white;fill-rule:nonzero;"/>
                </g>
                <g transform="matrix(20.833333,0,0,20.833333,762.312013,212.081297)">
                    <path d="M0.253,0.012C0.193,0.012 0.142,-0.002 0.101,-0.03C0.06,-0.059 0.037,-0.1 0.03,-0.155L0.123,-0.155C0.128,-0.126 0.142,-0.104 0.166,-0.087C0.189,-0.07 0.219,-0.062 0.256,-0.062C0.29,-0.062 0.317,-0.069 0.336,-0.084C0.355,-0.099 0.364,-0.117 0.364,-0.14C0.364,-0.157 0.358,-0.17 0.347,-0.179C0.335,-0.188 0.314,-0.195 0.282,-0.2C0.27,-0.203 0.256,-0.206 0.242,-0.208C0.227,-0.211 0.214,-0.213 0.201,-0.215C0.178,-0.22 0.156,-0.227 0.133,-0.238C0.111,-0.249 0.093,-0.264 0.078,-0.283C0.064,-0.302 0.056,-0.327 0.056,-0.358C0.056,-0.4 0.073,-0.436 0.105,-0.465C0.138,-0.494 0.182,-0.508 0.239,-0.508C0.294,-0.508 0.339,-0.496 0.375,-0.471C0.411,-0.446 0.431,-0.407 0.436,-0.354L0.347,-0.354C0.345,-0.382 0.333,-0.403 0.313,-0.415C0.293,-0.428 0.268,-0.434 0.238,-0.434C0.209,-0.434 0.186,-0.427 0.168,-0.415C0.149,-0.402 0.14,-0.386 0.14,-0.365C0.14,-0.329 0.167,-0.306 0.221,-0.295C0.229,-0.294 0.237,-0.293 0.246,-0.291C0.256,-0.29 0.265,-0.288 0.274,-0.286C0.283,-0.285 0.292,-0.283 0.299,-0.282C0.315,-0.28 0.332,-0.276 0.349,-0.271C0.366,-0.266 0.383,-0.258 0.398,-0.248C0.414,-0.239 0.426,-0.226 0.436,-0.21C0.445,-0.193 0.45,-0.173 0.45,-0.147C0.45,-0.116 0.442,-0.089 0.426,-0.065C0.41,-0.041 0.388,-0.022 0.358,-0.009C0.329,0.005 0.294,0.012 0.253,0.012Z" style="fill:white;fill-rule:nonzero;"/>
                </g>
                <g transform="matrix(20.833333,0,0,20.833333,772.624513,212.081297)">
                </g>
                <g transform="matrix(20.833333,0,0,20.833333,779.020347,212.081297)">
                    <rect x="0.061" y="-0.72" width="0.09" height="0.72" style="fill:white;fill-rule:nonzero;"/>
                </g>
                <g transform="matrix(20.833333,0,0,20.833333,783.437013,212.081297)">
                    <path d="M0.218,0.012C0.178,0.012 0.144,0.005 0.117,-0.009C0.09,-0.023 0.069,-0.041 0.056,-0.064C0.042,-0.087 0.035,-0.111 0.035,-0.137C0.035,-0.191 0.055,-0.232 0.094,-0.26C0.133,-0.289 0.184,-0.303 0.247,-0.303C0.275,-0.303 0.3,-0.301 0.323,-0.297C0.346,-0.293 0.365,-0.288 0.379,-0.283L0.379,-0.305C0.379,-0.348 0.368,-0.38 0.346,-0.401C0.323,-0.423 0.294,-0.434 0.256,-0.434C0.226,-0.434 0.199,-0.427 0.177,-0.415C0.154,-0.402 0.14,-0.381 0.135,-0.351L0.045,-0.351C0.049,-0.386 0.061,-0.416 0.082,-0.439C0.102,-0.462 0.128,-0.48 0.158,-0.491C0.189,-0.502 0.221,-0.508 0.256,-0.508C0.327,-0.508 0.38,-0.49 0.416,-0.453C0.451,-0.416 0.469,-0.367 0.469,-0.305L0.469,-0.156C0.469,-0.132 0.471,-0.114 0.474,-0.103C0.477,-0.092 0.482,-0.085 0.489,-0.082C0.497,-0.08 0.507,-0.078 0.519,-0.078L0.526,-0.078L0.526,-0L0.507,-0C0.474,-0 0.448,-0.005 0.427,-0.016C0.406,-0.027 0.392,-0.048 0.385,-0.08C0.37,-0.054 0.348,-0.032 0.321,-0.015C0.294,0.003 0.26,0.012 0.218,0.012ZM0.232,-0.061C0.261,-0.061 0.287,-0.069 0.308,-0.083C0.329,-0.098 0.345,-0.117 0.357,-0.141C0.369,-0.165 0.376,-0.19 0.377,-0.217C0.362,-0.221 0.343,-0.226 0.321,-0.23C0.299,-0.233 0.277,-0.235 0.255,-0.235C0.21,-0.235 0.177,-0.227 0.157,-0.209C0.136,-0.191 0.126,-0.169 0.126,-0.142C0.126,-0.119 0.135,-0.099 0.154,-0.084C0.172,-0.069 0.198,-0.061 0.232,-0.061Z" style="fill:white;fill-rule:nonzero;"/>
                </g>
                <g transform="matrix(20.833333,0,0,20.833333,793.832847,212.081297)">
                    <path d="M0.046,0.22L0.046,0.146L0.147,0.146C0.156,0.146 0.164,0.144 0.17,0.141C0.176,0.138 0.183,0.132 0.189,0.122C0.195,0.112 0.203,0.097 0.211,0.077L0.267,-0.046L0.259,0.001L0.042,-0.496L0.139,-0.496L0.3,-0.115L0.47,-0.496L0.564,-0.496L0.295,0.101C0.283,0.127 0.272,0.149 0.264,0.165C0.255,0.181 0.247,0.193 0.24,0.201C0.232,0.208 0.223,0.214 0.213,0.216C0.204,0.219 0.191,0.22 0.176,0.22L0.046,0.22Z" style="fill:white;fill-rule:nonzero;"/>
                </g>
                <g transform="matrix(20.833333,0,0,20.833333,805.16618,212.081297)">
                    <path d="M0.278,0.012C0.23,0.012 0.187,0.001 0.15,-0.021C0.113,-0.042 0.084,-0.072 0.063,-0.111C0.042,-0.15 0.032,-0.195 0.032,-0.247C0.032,-0.3 0.042,-0.345 0.063,-0.384C0.084,-0.423 0.113,-0.454 0.15,-0.475C0.187,-0.497 0.23,-0.508 0.279,-0.508C0.328,-0.508 0.369,-0.497 0.404,-0.476C0.44,-0.454 0.467,-0.426 0.486,-0.39C0.505,-0.355 0.514,-0.316 0.514,-0.274L0.514,-0.253C0.514,-0.245 0.514,-0.237 0.513,-0.228L0.099,-0.228L0.099,-0.294L0.425,-0.294C0.423,-0.338 0.408,-0.371 0.38,-0.396C0.353,-0.421 0.318,-0.433 0.277,-0.433C0.249,-0.433 0.223,-0.427 0.199,-0.414C0.175,-0.402 0.156,-0.384 0.142,-0.359C0.127,-0.335 0.12,-0.305 0.12,-0.269L0.12,-0.242C0.12,-0.202 0.127,-0.17 0.142,-0.143C0.157,-0.116 0.176,-0.096 0.2,-0.083C0.224,-0.07 0.25,-0.063 0.277,-0.063C0.311,-0.063 0.339,-0.071 0.361,-0.086C0.384,-0.102 0.4,-0.123 0.411,-0.149L0.5,-0.149C0.492,-0.119 0.477,-0.091 0.457,-0.067C0.437,-0.042 0.412,-0.023 0.382,-0.009C0.351,0.005 0.317,0.012 0.278,0.012Z" style="fill:white;fill-rule:nonzero;"/>
                </g>
                <g transform="matrix(20.833333,0,0,20.833333,816.770347,212.081297)">
                    <path d="M0.06,-0L0.06,-0.496L0.15,-0.496L0.15,-0.418C0.161,-0.444 0.176,-0.464 0.196,-0.478C0.216,-0.492 0.239,-0.5 0.267,-0.5L0.341,-0.5L0.341,-0.416L0.258,-0.416C0.237,-0.416 0.218,-0.41 0.201,-0.398C0.185,-0.386 0.172,-0.367 0.163,-0.341C0.154,-0.314 0.15,-0.28 0.15,-0.236L0.15,-0L0.06,-0Z" style="fill:white;fill-rule:nonzero;"/>
                </g>
                <g transform="matrix(20.833333,0,0,20.833333,824.707847,212.081297)">
                </g>
                <g transform="matrix(20.833333,0,0,20.833333,831.10368,212.081297)">
                    <path d="M0.094,-0L0.094,-0.583C0.094,-0.619 0.099,-0.648 0.108,-0.667C0.118,-0.687 0.133,-0.701 0.154,-0.709C0.175,-0.716 0.203,-0.72 0.237,-0.72L0.291,-0.72L0.291,-0.643L0.253,-0.643C0.225,-0.643 0.207,-0.639 0.198,-0.631C0.189,-0.622 0.184,-0.604 0.184,-0.576L0.184,-0L0.094,-0ZM0.021,-0.42L0.021,-0.496L0.291,-0.496L0.291,-0.42L0.021,-0.42Z" style="fill:white;fill-rule:nonzero;"/>
                </g>
                <g transform="matrix(20.833333,0,0,20.833333,837.60368,212.081297)">
                    <path d="M0.287,0.012C0.239,0.012 0.195,0.001 0.156,-0.02C0.118,-0.042 0.087,-0.072 0.065,-0.111C0.043,-0.15 0.032,-0.196 0.032,-0.248C0.032,-0.301 0.043,-0.347 0.065,-0.385C0.088,-0.424 0.119,-0.454 0.158,-0.476C0.197,-0.497 0.24,-0.508 0.289,-0.508C0.338,-0.508 0.381,-0.497 0.42,-0.476C0.458,-0.454 0.489,-0.424 0.511,-0.385C0.533,-0.347 0.544,-0.301 0.544,-0.248C0.544,-0.196 0.533,-0.15 0.511,-0.111C0.488,-0.072 0.458,-0.042 0.419,-0.02C0.38,0.001 0.336,0.012 0.287,0.012ZM0.287,-0.065C0.317,-0.065 0.344,-0.072 0.369,-0.086C0.394,-0.1 0.414,-0.12 0.429,-0.147C0.444,-0.174 0.452,-0.208 0.452,-0.248C0.452,-0.289 0.444,-0.322 0.429,-0.349C0.414,-0.376 0.395,-0.396 0.37,-0.41C0.345,-0.424 0.318,-0.431 0.289,-0.431C0.26,-0.431 0.232,-0.424 0.207,-0.41C0.182,-0.396 0.162,-0.376 0.147,-0.349C0.132,-0.323 0.124,-0.289 0.124,-0.248C0.124,-0.208 0.132,-0.174 0.147,-0.147C0.162,-0.12 0.182,-0.1 0.206,-0.086C0.231,-0.072 0.258,-0.065 0.287,-0.065Z" style="fill:white;fill-rule:nonzero;"/>
                </g>
                <g transform="matrix(20.833333,0,0,20.833333,849.60368,212.081297)">
                    <path d="M0.06,-0L0.06,-0.496L0.15,-0.496L0.15,-0.418C0.161,-0.444 0.176,-0.464 0.196,-0.478C0.216,-0.492 0.239,-0.5 0.267,-0.5L0.341,-0.5L0.341,-0.416L0.258,-0.416C0.237,-0.416 0.218,-0.41 0.201,-0.398C0.185,-0.386 0.172,-0.367 0.163,-0.341C0.154,-0.314 0.15,-0.28 0.15,-0.236L0.15,-0L0.06,-0Z" style="fill:white;fill-rule:nonzero;"/>
                </g>
                <g transform="matrix(20.833333,0,0,20.833333,857.54118,212.081297)">
                </g>
                <g transform="matrix(20.833333,0,0,20.833333,863.937013,212.081297)">
                    <path d="M0.031,-0L0.289,-0.7L0.385,-0.7L0.643,-0L0.548,-0L0.317,-0.645L0.357,-0.645L0.126,-0L0.031,-0ZM0.151,-0.178L0.176,-0.25L0.498,-0.25L0.523,-0.178L0.151,-0.178Z" style="fill:white;fill-rule:nonzero;"/>
                </g>
                <g transform="matrix(20.833333,0,0,20.833333,877.97868,212.081297)">
                    <rect x="0.072" y="-0.7" width="0.09" height="0.7" style="fill:white;fill-rule:nonzero;"/>
                </g>
                <g transform="matrix(20.833333,0,0,20.833333,882.85368,212.081297)">
                </g>
                <g transform="matrix(20.833333,0,0,20.833333,889.249513,212.081297)">
                    <path d="M0.281,0.012C0.233,0.012 0.191,0.001 0.153,-0.021C0.116,-0.043 0.086,-0.073 0.064,-0.112C0.042,-0.151 0.031,-0.196 0.031,-0.248C0.031,-0.3 0.042,-0.346 0.064,-0.384C0.086,-0.423 0.116,-0.453 0.153,-0.475C0.191,-0.497 0.233,-0.508 0.281,-0.508C0.341,-0.508 0.391,-0.492 0.431,-0.461C0.472,-0.43 0.497,-0.389 0.509,-0.337L0.416,-0.337C0.409,-0.366 0.394,-0.39 0.369,-0.406C0.344,-0.423 0.314,-0.431 0.281,-0.431C0.253,-0.431 0.228,-0.424 0.204,-0.41C0.179,-0.396 0.16,-0.376 0.145,-0.349C0.131,-0.322 0.123,-0.288 0.123,-0.248C0.123,-0.208 0.131,-0.175 0.145,-0.148C0.16,-0.12 0.179,-0.1 0.204,-0.086C0.228,-0.072 0.253,-0.065 0.281,-0.065C0.314,-0.065 0.344,-0.073 0.369,-0.089C0.394,-0.106 0.409,-0.129 0.416,-0.159L0.509,-0.159C0.498,-0.109 0.472,-0.068 0.432,-0.036C0.391,-0.004 0.341,0.012 0.281,0.012Z" style="fill:white;fill-rule:nonzero;"/>
                </g>
                <g transform="matrix(20.833333,0,0,20.833333,900.66618,212.081297)">
                    <path d="M0.287,0.012C0.239,0.012 0.195,0.001 0.156,-0.02C0.118,-0.042 0.087,-0.072 0.065,-0.111C0.043,-0.15 0.032,-0.196 0.032,-0.248C0.032,-0.301 0.043,-0.347 0.065,-0.385C0.088,-0.424 0.119,-0.454 0.158,-0.476C0.197,-0.497 0.24,-0.508 0.289,-0.508C0.338,-0.508 0.381,-0.497 0.42,-0.476C0.458,-0.454 0.489,-0.424 0.511,-0.385C0.533,-0.347 0.544,-0.301 0.544,-0.248C0.544,-0.196 0.533,-0.15 0.511,-0.111C0.488,-0.072 0.458,-0.042 0.419,-0.02C0.38,0.001 0.336,0.012 0.287,0.012ZM0.287,-0.065C0.317,-0.065 0.344,-0.072 0.369,-0.086C0.394,-0.1 0.414,-0.12 0.429,-0.147C0.444,-0.174 0.452,-0.208 0.452,-0.248C0.452,-0.289 0.444,-0.322 0.429,-0.349C0.414,-0.376 0.395,-0.396 0.37,-0.41C0.345,-0.424 0.318,-0.431 0.289,-0.431C0.26,-0.431 0.232,-0.424 0.207,-0.41C0.182,-0.396 0.162,-0.376 0.147,-0.349C0.132,-0.323 0.124,-0.289 0.124,-0.248C0.124,-0.208 0.132,-0.174 0.147,-0.147C0.162,-0.12 0.182,-0.1 0.206,-0.086C0.231,-0.072 0.258,-0.065 0.287,-0.065Z" style="fill:white;fill-rule:nonzero;"/>
                </g>
                <g transform="matrix(20.833333,0,0,20.833333,912.66618,212.081297)">
                    <path d="M0.277,0.012C0.228,0.012 0.185,0.001 0.148,-0.022C0.111,-0.045 0.083,-0.076 0.062,-0.115C0.041,-0.155 0.031,-0.199 0.031,-0.249C0.031,-0.299 0.041,-0.343 0.062,-0.383C0.083,-0.421 0.112,-0.452 0.148,-0.475C0.185,-0.497 0.228,-0.508 0.277,-0.508C0.318,-0.508 0.354,-0.5 0.385,-0.483C0.416,-0.467 0.439,-0.444 0.456,-0.415L0.456,-0.72L0.546,-0.72L0.546,-0L0.456,-0L0.456,-0.081C0.44,-0.057 0.418,-0.036 0.389,-0.017C0.359,0.002 0.322,0.012 0.277,0.012ZM0.289,-0.066C0.321,-0.066 0.35,-0.074 0.375,-0.089C0.399,-0.105 0.419,-0.126 0.433,-0.153C0.447,-0.18 0.454,-0.212 0.454,-0.248C0.454,-0.284 0.447,-0.316 0.433,-0.343C0.419,-0.371 0.399,-0.392 0.375,-0.407C0.35,-0.422 0.321,-0.43 0.289,-0.43C0.257,-0.43 0.228,-0.422 0.203,-0.407C0.178,-0.392 0.158,-0.371 0.144,-0.343C0.13,-0.316 0.123,-0.284 0.123,-0.248C0.123,-0.212 0.13,-0.18 0.144,-0.153C0.158,-0.126 0.178,-0.105 0.203,-0.089C0.228,-0.074 0.257,-0.066 0.289,-0.066Z" style="fill:white;fill-rule:nonzero;"/>
                </g>
                <g transform="matrix(20.833333,0,0,20.833333,925.207847,212.081297)">
                    <path d="M0.062,-0L0.062,-0.496L0.152,-0.496L0.152,-0L0.062,-0ZM0.052,-0.591L0.052,-0.701L0.161,-0.701L0.161,-0.591L0.052,-0.591Z" style="fill:white;fill-rule:nonzero;"/>
                </g>
                <g transform="matrix(20.833333,0,0,20.833333,929.624513,212.081297)">
                    <path d="M0.06,-0L0.06,-0.496L0.15,-0.496L0.15,-0.414C0.166,-0.443 0.189,-0.466 0.218,-0.483C0.248,-0.5 0.281,-0.508 0.318,-0.508C0.376,-0.508 0.423,-0.49 0.458,-0.454C0.493,-0.418 0.51,-0.363 0.51,-0.288L0.51,-0L0.42,-0L0.42,-0.279C0.42,-0.33 0.41,-0.368 0.389,-0.393C0.367,-0.418 0.336,-0.431 0.295,-0.431C0.253,-0.431 0.219,-0.416 0.191,-0.386C0.163,-0.355 0.15,-0.313 0.15,-0.257L0.15,-0L0.06,-0Z" style="fill:white;fill-rule:nonzero;"/>
                </g>
                <g transform="matrix(20.833333,0,0,20.833333,941.47868,212.081297)">
                    <path d="M0.304,0.232C0.261,0.232 0.221,0.225 0.185,0.21C0.149,0.195 0.119,0.173 0.094,0.145C0.07,0.117 0.055,0.082 0.048,0.041L0.137,0.041C0.146,0.075 0.166,0.102 0.196,0.123C0.227,0.143 0.262,0.154 0.303,0.154C0.335,0.154 0.363,0.147 0.389,0.134C0.414,0.12 0.434,0.1 0.449,0.073C0.464,0.046 0.472,0.012 0.472,-0.027L0.472,-0.098C0.461,-0.08 0.447,-0.063 0.43,-0.046C0.412,-0.03 0.391,-0.017 0.367,-0.007C0.342,0.004 0.314,0.009 0.282,0.009C0.235,0.009 0.193,-0.002 0.155,-0.025C0.117,-0.048 0.087,-0.078 0.065,-0.118C0.043,-0.157 0.032,-0.201 0.032,-0.25C0.032,-0.3 0.043,-0.344 0.065,-0.383C0.087,-0.422 0.117,-0.452 0.155,-0.475C0.193,-0.497 0.235,-0.508 0.282,-0.508C0.326,-0.508 0.364,-0.498 0.397,-0.479C0.429,-0.46 0.454,-0.437 0.472,-0.41L0.472,-0.496L0.562,-0.496L0.562,-0.03C0.562,0.025 0.55,0.072 0.528,0.111C0.506,0.15 0.475,0.18 0.437,0.201C0.398,0.222 0.354,0.232 0.304,0.232ZM0.296,-0.069C0.329,-0.069 0.359,-0.077 0.385,-0.092C0.411,-0.108 0.431,-0.129 0.446,-0.156C0.461,-0.184 0.468,-0.215 0.468,-0.25C0.468,-0.286 0.461,-0.317 0.446,-0.344C0.431,-0.371 0.411,-0.392 0.385,-0.407C0.359,-0.422 0.329,-0.43 0.296,-0.43C0.263,-0.43 0.234,-0.422 0.208,-0.407C0.182,-0.392 0.161,-0.371 0.146,-0.344C0.132,-0.318 0.124,-0.286 0.124,-0.25C0.124,-0.215 0.132,-0.184 0.146,-0.157C0.161,-0.129 0.182,-0.108 0.208,-0.092C0.234,-0.077 0.263,-0.069 0.296,-0.069Z" style="fill:white;fill-rule:nonzero;"/>
                </g>
                <g transform="matrix(20.833333,0,0,20.833333,954.395347,212.081297)">
                </g>
                <g transform="matrix(20.833333,0,0,20.833333,960.79118,212.081297)">
                    <path d="M0.218,0.012C0.178,0.012 0.144,0.005 0.117,-0.009C0.09,-0.023 0.069,-0.041 0.056,-0.064C0.042,-0.087 0.035,-0.111 0.035,-0.137C0.035,-0.191 0.055,-0.232 0.094,-0.26C0.133,-0.289 0.184,-0.303 0.247,-0.303C0.275,-0.303 0.3,-0.301 0.323,-0.297C0.346,-0.293 0.365,-0.288 0.379,-0.283L0.379,-0.305C0.379,-0.348 0.368,-0.38 0.346,-0.401C0.323,-0.423 0.294,-0.434 0.256,-0.434C0.226,-0.434 0.199,-0.427 0.177,-0.415C0.154,-0.402 0.14,-0.381 0.135,-0.351L0.045,-0.351C0.049,-0.386 0.061,-0.416 0.082,-0.439C0.102,-0.462 0.128,-0.48 0.158,-0.491C0.189,-0.502 0.221,-0.508 0.256,-0.508C0.327,-0.508 0.38,-0.49 0.416,-0.453C0.451,-0.416 0.469,-0.367 0.469,-0.305L0.469,-0.156C0.469,-0.132 0.471,-0.114 0.474,-0.103C0.477,-0.092 0.482,-0.085 0.489,-0.082C0.497,-0.08 0.507,-0.078 0.519,-0.078L0.526,-0.078L0.526,-0L0.507,-0C0.474,-0 0.448,-0.005 0.427,-0.016C0.406,-0.027 0.392,-0.048 0.385,-0.08C0.37,-0.054 0.348,-0.032 0.321,-0.015C0.294,0.003 0.26,0.012 0.218,0.012ZM0.232,-0.061C0.261,-0.061 0.287,-0.069 0.308,-0.083C0.329,-0.098 0.345,-0.117 0.357,-0.141C0.369,-0.165 0.376,-0.19 0.377,-0.217C0.362,-0.221 0.343,-0.226 0.321,-0.23C0.299,-0.233 0.277,-0.235 0.255,-0.235C0.21,-0.235 0.177,-0.227 0.157,-0.209C0.136,-0.191 0.126,-0.169 0.126,-0.142C0.126,-0.119 0.135,-0.099 0.154,-0.084C0.172,-0.069 0.198,-0.061 0.232,-0.061Z" style="fill:white;fill-rule:nonzero;"/>
                </g>
                <g transform="matrix(20.833333,0,0,20.833333,972.35368,212.081297)">
                    <path d="M0.304,0.232C0.261,0.232 0.221,0.225 0.185,0.21C0.149,0.195 0.119,0.173 0.094,0.145C0.07,0.117 0.055,0.082 0.048,0.041L0.137,0.041C0.146,0.075 0.166,0.102 0.196,0.123C0.227,0.143 0.262,0.154 0.303,0.154C0.335,0.154 0.363,0.147 0.389,0.134C0.414,0.12 0.434,0.1 0.449,0.073C0.464,0.046 0.472,0.012 0.472,-0.027L0.472,-0.098C0.461,-0.08 0.447,-0.063 0.43,-0.046C0.412,-0.03 0.391,-0.017 0.367,-0.007C0.342,0.004 0.314,0.009 0.282,0.009C0.235,0.009 0.193,-0.002 0.155,-0.025C0.117,-0.048 0.087,-0.078 0.065,-0.118C0.043,-0.157 0.032,-0.201 0.032,-0.25C0.032,-0.3 0.043,-0.344 0.065,-0.383C0.087,-0.422 0.117,-0.452 0.155,-0.475C0.193,-0.497 0.235,-0.508 0.282,-0.508C0.326,-0.508 0.364,-0.498 0.397,-0.479C0.429,-0.46 0.454,-0.437 0.472,-0.41L0.472,-0.496L0.562,-0.496L0.562,-0.03C0.562,0.025 0.55,0.072 0.528,0.111C0.506,0.15 0.475,0.18 0.437,0.201C0.398,0.222 0.354,0.232 0.304,0.232ZM0.296,-0.069C0.329,-0.069 0.359,-0.077 0.385,-0.092C0.411,-0.108 0.431,-0.129 0.446,-0.156C0.461,-0.184 0.468,-0.215 0.468,-0.25C0.468,-0.286 0.461,-0.317 0.446,-0.344C0.431,-0.371 0.411,-0.392 0.385,-0.407C0.359,-0.422 0.329,-0.43 0.296,-0.43C0.263,-0.43 0.234,-0.422 0.208,-0.407C0.182,-0.392 0.161,-0.371 0.146,-0.344C0.132,-0.318 0.124,-0.286 0.124,-0.25C0.124,-0.215 0.132,-0.184 0.146,-0.157C0.161,-0.129 0.182,-0.108 0.208,-0.092C0.234,-0.077 0.263,-0.069 0.296,-0.069Z" style="fill:white;fill-rule:nonzero;"/>
                </g>
                <g transform="matrix(20.833333,0,0,20.833333,985.270347,212.081297)">
                    <path d="M0.278,0.012C0.23,0.012 0.187,0.001 0.15,-0.021C0.113,-0.042 0.084,-0.072 0.063,-0.111C0.042,-0.15 0.032,-0.195 0.032,-0.247C0.032,-0.3 0.042,-0.345 0.063,-0.384C0.084,-0.423 0.113,-0.454 0.15,-0.475C0.187,-0.497 0.23,-0.508 0.279,-0.508C0.328,-0.508 0.369,-0.497 0.404,-0.476C0.44,-0.454 0.467,-0.426 0.486,-0.39C0.505,-0.355 0.514,-0.316 0.514,-0.274L0.514,-0.253C0.514,-0.245 0.514,-0.237 0.513,-0.228L0.099,-0.228L0.099,-0.294L0.425,-0.294C0.423,-0.338 0.408,-0.371 0.38,-0.396C0.353,-0.421 0.318,-0.433 0.277,-0.433C0.249,-0.433 0.223,-0.427 0.199,-0.414C0.175,-0.402 0.156,-0.384 0.142,-0.359C0.127,-0.335 0.12,-0.305 0.12,-0.269L0.12,-0.242C0.12,-0.202 0.127,-0.17 0.142,-0.143C0.157,-0.116 0.176,-0.096 0.2,-0.083C0.224,-0.07 0.25,-0.063 0.277,-0.063C0.311,-0.063 0.339,-0.071 0.361,-0.086C0.384,-0.102 0.4,-0.123 0.411,-0.149L0.5,-0.149C0.492,-0.119 0.477,-0.091 0.457,-0.067C0.437,-0.042 0.412,-0.023 0.382,-0.009C0.351,0.005 0.317,0.012 0.278,0.012Z" style="fill:white;fill-rule:nonzero;"/>
                </g>
                <g transform="matrix(20.833333,0,0,20.833333,996.874513,212.081297)">
                    <path d="M0.06,-0L0.06,-0.496L0.15,-0.496L0.15,-0.414C0.166,-0.443 0.189,-0.466 0.218,-0.483C0.248,-0.5 0.281,-0.508 0.318,-0.508C0.376,-0.508 0.423,-0.49 0.458,-0.454C0.493,-0.418 0.51,-0.363 0.51,-0.288L0.51,-0L0.42,-0L0.42,-0.279C0.42,-0.33 0.41,-0.368 0.389,-0.393C0.367,-0.418 0.336,-0.431 0.295,-0.431C0.253,-0.431 0.219,-0.416 0.191,-0.386C0.163,-0.355 0.15,-0.313 0.15,-0.257L0.15,-0L0.06,-0Z" style="fill:white;fill-rule:nonzero;"/>
                </g>
                <g transform="matrix(20.833333,0,0,20.833333,1008.41618,212.081297)">
                    <path d="M0.226,-0C0.198,-0 0.175,-0.004 0.155,-0.011C0.136,-0.018 0.121,-0.031 0.111,-0.05C0.102,-0.069 0.097,-0.097 0.097,-0.132L0.097,-0.42L0.011,-0.42L0.011,-0.496L0.097,-0.496L0.097,-0.617L0.187,-0.617L0.187,-0.496L0.327,-0.496L0.327,-0.42L0.187,-0.42L0.187,-0.146C0.187,-0.125 0.188,-0.109 0.192,-0.099C0.195,-0.089 0.202,-0.083 0.213,-0.081C0.223,-0.078 0.239,-0.077 0.259,-0.077L0.32,-0.077L0.32,-0L0.226,-0Z" style="fill:white;fill-rule:nonzero;"/>
                </g>
                <g transform="matrix(20.833333,0,0,20.833333,1015.60368,212.081297)">
                    <path d="M0.253,0.012C0.193,0.012 0.142,-0.002 0.101,-0.03C0.06,-0.059 0.037,-0.1 0.03,-0.155L0.123,-0.155C0.128,-0.126 0.142,-0.104 0.166,-0.087C0.189,-0.07 0.219,-0.062 0.256,-0.062C0.29,-0.062 0.317,-0.069 0.336,-0.084C0.355,-0.099 0.364,-0.117 0.364,-0.14C0.364,-0.157 0.358,-0.17 0.347,-0.179C0.335,-0.188 0.314,-0.195 0.282,-0.2C0.27,-0.203 0.256,-0.206 0.242,-0.208C0.227,-0.211 0.214,-0.213 0.201,-0.215C0.178,-0.22 0.156,-0.227 0.133,-0.238C0.111,-0.249 0.093,-0.264 0.078,-0.283C0.064,-0.302 0.056,-0.327 0.056,-0.358C0.056,-0.4 0.073,-0.436 0.105,-0.465C0.138,-0.494 0.182,-0.508 0.239,-0.508C0.294,-0.508 0.339,-0.496 0.375,-0.471C0.411,-0.446 0.431,-0.407 0.436,-0.354L0.347,-0.354C0.345,-0.382 0.333,-0.403 0.313,-0.415C0.293,-0.428 0.268,-0.434 0.238,-0.434C0.209,-0.434 0.186,-0.427 0.168,-0.415C0.149,-0.402 0.14,-0.386 0.14,-0.365C0.14,-0.329 0.167,-0.306 0.221,-0.295C0.229,-0.294 0.237,-0.293 0.246,-0.291C0.256,-0.29 0.265,-0.288 0.274,-0.286C0.283,-0.285 0.292,-0.283 0.299,-0.282C0.315,-0.28 0.332,-0.276 0.349,-0.271C0.366,-0.266 0.383,-0.258 0.398,-0.248C0.414,-0.239 0.426,-0.226 0.436,-0.21C0.445,-0.193 0.45,-0.173 0.45,-0.147C0.45,-0.116 0.442,-0.089 0.426,-0.065C0.41,-0.041 0.388,-0.022 0.358,-0.009C0.329,0.005 0.294,0.012 0.253,0.012Z" style="fill:white;fill-rule:nonzero;"/>
                </g>
                <g transform="matrix(20.833333,0,0,20.833333,1025.91618,212.081297)">
                </g>
            </g>
        </g>
        <g transform="matrix(1,0,0,2,-4.420345,-8.495645)">
            <path d="M12.073,7.887L12.073,12.641C12.073,12.969 11.806,13.236 11.478,13.236L6.724,13.236C6.396,13.236 6.129,12.969 6.129,12.641L6.129,7.887C6.129,7.559 6.396,7.292 6.724,7.292L11.478,7.292C11.806,7.292 12.073,7.559 12.073,7.887Z" style="fill:rgb(13,153,23);"/>
        </g>
        <g transform="matrix(1,0,0,2,9.702712,10.709913)">
            <path d="M12.073,7.887L12.073,12.641C12.073,12.969 11.806,13.236 11.478,13.236L6.724,13.236C6.396,13.236 6.129,12.969 6.129,12.641L6.129,7.887C6.129,7.559 6.396,7.292 6.724,7.292L11.478,7.292C11.806,7.292 12.073,7.559 12.073,7.887Z" style="fill:rgb(13,64,23);"/>
        </g>
        <g transform="matrix(1,0,0,2,39.714227,47.314949)">
            <path d="M12.073,7.887L12.073,12.641C12.073,12.969 11.806,13.236 11.478,13.236L6.724,13.236C6.396,13.236 6.129,12.969 6.129,12.641L6.129,7.887C6.129,7.559 6.396,7.292 6.724,7.292L11.478,7.292C11.806,7.292 12.073,7.559 12.073,7.887Z" style="fill:rgb(13,153,23);"/>
        </g>
        <g transform="matrix(1,0,0,2,15.645843,53.258079)">
            <path d="M12.073,7.887L12.073,12.641C12.073,12.969 11.806,13.236 11.478,13.236L6.724,13.236C6.396,13.236 6.129,12.969 6.129,12.641L6.129,7.887C6.129,7.559 6.396,7.292 6.724,7.292L11.478,7.292C11.806,7.292 12.073,7.559 12.073,7.887Z" style="fill:rgb(13,64,23);"/>
        </g>
        <g transform="matrix(1,0,0,2,36.742661,118.565476)">
            <path d="M12.073,7.887L12.073,12.641C12.073,12.969 11.806,13.236 11.478,13.236L6.724,13.236C6.396,13.236 6.129,12.969 6.129,12.641L6.129,7.887C6.129,7.559 6.396,7.292 6.724,7.292L11.478,7.292C11.806,7.292 12.073,7.559 12.073,7.887Z" style="fill:rgb(13,153,23);"/>
        </g>
        <g transform="matrix(1,0,0,2,9.702712,107.109128)">
            <path d="M12.073,7.887L12.073,12.641C12.073,12.969 11.806,13.236 11.478,13.236L6.724,13.236C6.396,13.236 6.129,12.969 6.129,12.641L6.129,7.887C6.129,7.559 6.396,7.292 6.724,7.292L11.478,7.292C11.806,7.292 12.073,7.559 12.073,7.887Z" style="fill:rgb(13,64,23);"/>
        </g>
        <g transform="matrix(1,0,0,2,1.522786,76.863508)">
            <path d="M12.073,7.887L12.073,12.641C12.073,12.969 11.806,13.236 11.478,13.236L6.724,13.236C6.396,13.236 6.129,12.969 6.129,12.641L6.129,7.887C6.129,7.559 6.396,7.292 6.724,7.292L11.478,7.292C11.806,7.292 12.073,7.559 12.073,7.887Z" style="fill:rgb(13,153,23);"/>
        </g>
        <g transform="matrix(1,0,0,2,26.724121,12.78282)">
            <path d="M12.073,7.887L12.073,12.641C12.073,12.969 11.806,13.236 11.478,13.236L6.724,13.236C6.396,13.236 6.129,12.969 6.129,12.641L6.129,7.887C6.129,7.559 6.396,7.292 6.724,7.292L11.478,7.292C11.806,7.292 12.073,7.559 12.073,7.887Z" style="fill:rgb(13,153,23);"/>
        </g>
        <g transform="matrix(1,0,0,2,3.165946,165.392701)">
            <path d="M12.073,7.887L12.073,12.641C12.073,12.969 11.806,13.236 11.478,13.236L6.724,13.236C6.396,13.236 6.129,12.969 6.129,12.641L6.129,7.887C6.129,7.559 6.396,7.292 6.724,7.292L11.478,7.292C11.806,7.292 12.073,7.559 12.073,7.887Z" style="fill:rgb(13,64,23);"/>
        </g>
        <g transform="matrix(1,0,0,2,7.465916,213.528823)">
            <path d="M12.073,7.887L12.073,12.641C12.073,12.969 11.806,13.236 11.478,13.236L6.724,13.236C6.396,13.236 6.129,12.969 6.129,12.641L6.129,7.887C6.129,7.559 6.396,7.292 6.724,7.292L11.478,7.292C11.806,7.292 12.073,7.559 12.073,7.887Z" style="fill:rgb(13,153,23);"/>
        </g>
        <g transform="matrix(1,0,0,2,23.752556,177.42407)">
            <path d="M12.073,7.887L12.073,12.641C12.073,12.969 11.806,13.236 11.478,13.236L6.724,13.236C6.396,13.236 6.129,12.969 6.129,12.641L6.129,7.887C6.129,7.559 6.396,7.292 6.724,7.292L11.478,7.292C11.806,7.292 12.073,7.559 12.073,7.887Z" style="fill:rgb(13,64,23);"/>
        </g>
        <g transform="matrix(1,0,0,2,36.742661,237.60624)">
            <path d="M12.073,7.887L12.073,12.641C12.073,12.969 11.806,13.236 11.478,13.236L6.724,13.236C6.396,13.236 6.129,12.969 6.129,12.641L6.129,7.887C6.129,7.559 6.396,7.292 6.724,7.292L11.478,7.292C11.806,7.292 12.073,7.559 12.073,7.887Z" style="fill:rgb(13,153,23);"/>
        </g>
        <g transform="matrix(1,0,0,2,9.702712,247.520309)">
            <path d="M12.073,7.887L12.073,12.641C12.073,12.969 11.806,13.236 11.478,13.236L6.724,13.236C6.396,13.236 6.129,12.969 6.129,12.641L6.129,7.887C6.129,7.559 6.396,7.292 6.724,7.292L11.478,7.292C11.806,7.292 12.073,7.559 12.073,7.887Z" style="fill:rgb(13,64,23);"/>
        </g>
        <g transform="matrix(1,0,0,2,-4.420345,277.217658)">
            <path d="M12.073,7.887L12.073,12.641C12.073,12.969 11.806,13.236 11.478,13.236L6.724,13.236C6.396,13.236 6.129,12.969 6.129,12.641L6.129,7.887C6.129,7.559 6.396,7.292 6.724,7.292L11.478,7.292C11.806,7.292 12.073,7.559 12.073,7.887Z" style="fill:rgb(13,153,23);"/>
        </g>
        <g transform="matrix(1,0,0,2,9.702712,296.423215)">
            <path d="M12.073,7.887L12.073,12.641C12.073,12.969 11.806,13.236 11.478,13.236L6.724,13.236C6.396,13.236 6.129,12.969 6.129,12.641L6.129,7.887C6.129,7.559 6.396,7.292 6.724,7.292L11.478,7.292C11.806,7.292 12.073,7.559 12.073,7.887Z" style="fill:rgb(13,64,23);"/>
        </g>
        <g transform="matrix(1,0,0,2,24.8564,319.954336)">
            <path d="M12.073,7.887L12.073,12.641C12.073,12.969 11.806,13.236 11.478,13.236L6.724,13.236C6.396,13.236 6.129,12.969 6.129,12.641L6.129,7.887C6.129,7.559 6.396,7.292 6.724,7.292L11.478,7.292C11.806,7.292 12.073,7.559 12.073,7.887Z" style="fill:rgb(13,153,23);"/>
        </g>
        <g transform="matrix(1,0,0,2,1.522786,331.840596)">
            <path d="M12.073,7.887L12.073,12.641C12.073,12.969 11.806,13.236 11.478,13.236L6.724,13.236C6.396,13.236 6.129,12.969 6.129,12.641L6.129,7.887C6.129,7.559 6.396,7.292 6.724,7.292L11.478,7.292C11.806,7.292 12.073,7.559 12.073,7.887Z" style="fill:rgb(13,64,23);"/>
        </g>
        <g transform="matrix(1,0,0,2,24.8564,364.706351)">
            <path d="M12.073,7.887L12.073,12.641C12.073,12.969 11.806,13.236 11.478,13.236L6.724,13.236C6.396,13.236 6.129,12.969 6.129,12.641L6.129,7.887C6.129,7.559 6.396,7.292 6.724,7.292L11.478,7.292C11.806,7.292 12.073,7.559 12.073,7.887Z" style="fill:rgb(13,153,23);"/>
        </g>
        <g transform="matrix(1,0,0,2,9.702712,396.919972)">
            <path d="M12.073,7.887L12.073,12.641C12.073,12.969 11.806,13.236 11.478,13.236L6.724,13.236C6.396,13.236 6.129,12.969 6.129,12.641L6.129,7.887C6.129,7.559 6.396,7.292 6.724,7.292L11.478,7.292C11.806,7.292 12.073,7.559 12.073,7.887Z" style="fill:rgb(13,64,23);"/>
        </g>
        <g transform="matrix(1,0,0,2,-4.420345,425.210723)">
            <path d="M12.073,7.887L12.073,12.641C12.073,12.969 11.806,13.236 11.478,13.236L6.724,13.236C6.396,13.236 6.129,12.969 6.129,12.641L6.129,7.887C6.129,7.559 6.396,7.292 6.724,7.292L11.478,7.292C11.806,7.292 12.073,7.559 12.073,7.887Z" style="fill:rgb(13,153,23);"/>
        </g>
        <g transform="matrix(1,0,0,2,9.702712,444.416281)">
            <path d="M12.073,7.887L12.073,12.641C12.073,12.969 11.806,13.236 11.478,13.236L6.724,13.236C6.396,13.236 6.129,12.969 6.129,12.641L6.129,7.887C6.129,7.559 6.396,7.292 6.724,7.292L11.478,7.292C11.806,7.292 12.073,7.559 12.073,7.887Z" style="fill:rgb(13,64,23);"/>
        </g>
        <g transform="matrix(1,0,0,2,743.792905,-8.495645)">
            <path d="M12.073,7.887L12.073,12.641C12.073,12.969 11.806,13.236 11.478,13.236L6.724,13.236C6.396,13.236 6.129,12.969 6.129,12.641L6.129,7.887C6.129,7.559 6.396,7.292 6.724,7.292L11.478,7.292C11.806,7.292 12.073,7.559 12.073,7.887Z" style="fill:rgb(13,153,23);"/>
        </g>
        <g transform="matrix(1,0,0,2,757.915962,10.709913)">
            <path d="M12.073,7.887L12.073,12.641C12.073,12.969 11.806,13.236 11.478,13.236L6.724,13.236C6.396,13.236 6.129,12.969 6.129,12.641L6.129,7.887C6.129,7.559 6.396,7.292 6.724,7.292L11.478,7.292C11.806,7.292 12.073,7.559 12.073,7.887Z" style="fill:rgb(13,64,23);"/>
        </g>
        <g transform="matrix(1,0,0,2,787.927476,47.314949)">
            <path d="M12.073,7.887L12.073,12.641C12.073,12.969 11.806,13.236 11.478,13.236L6.724,13.236C6.396,13.236 6.129,12.969 6.129,12.641L6.129,7.887C6.129,7.559 6.396,7.292 6.724,7.292L11.478,7.292C11.806,7.292 12.073,7.559 12.073,7.887Z" style="fill:rgb(13,153,23);"/>
        </g>
        <g transform="matrix(1,0,0,2,763.859092,53.258079)">
            <path d="M12.073,7.887L12.073,12.641C12.073,12.969 11.806,13.236 11.478,13.236L6.724,13.236C6.396,13.236 6.129,12.969 6.129,12.641L6.129,7.887C6.129,7.559 6.396,7.292 6.724,7.292L11.478,7.292C11.806,7.292 12.073,7.559 12.073,7.887Z" style="fill:rgb(13,64,23);"/>
        </g>
        <g transform="matrix(1,0,0,2,784.955911,118.565476)">
            <path d="M12.073,7.887L12.073,12.641C12.073,12.969 11.806,13.236 11.478,13.236L6.724,13.236C6.396,13.236 6.129,12.969 6.129,12.641L6.129,7.887C6.129,7.559 6.396,7.292 6.724,7.292L11.478,7.292C11.806,7.292 12.073,7.559 12.073,7.887Z" style="fill:rgb(13,153,23);"/>
        </g>
        <g transform="matrix(1,0,0,2,757.915962,107.109128)">
            <path d="M12.073,7.887L12.073,12.641C12.073,12.969 11.806,13.236 11.478,13.236L6.724,13.236C6.396,13.236 6.129,12.969 6.129,12.641L6.129,7.887C6.129,7.559 6.396,7.292 6.724,7.292L11.478,7.292C11.806,7.292 12.073,7.559 12.073,7.887Z" style="fill:rgb(13,64,23);"/>
        </g>
        <g transform="matrix(1,0,0,2,749.736035,76.863508)">
            <path d="M12.073,7.887L12.073,12.641C12.073,12.969 11.806,13.236 11.478,13.236L6.724,13.236C6.396,13.236 6.129,12.969 6.129,12.641L6.129,7.887C6.129,7.559 6.396,7.292 6.724,7.292L11.478,7.292C11.806,7.292 12.073,7.559 12.073,7.887Z" style="fill:rgb(13,153,23);"/>
        </g>
        <g transform="matrix(1,0,0,2,731.592139,183.367201)">
            <path d="M12.073,7.887L12.073,12.641C12.073,12.969 11.806,13.236 11.478,13.236L6.724,13.236C6.396,13.236 6.129,12.969 6.129,12.641L6.129,7.887C6.129,7.559 6.396,7.292 6.724,7.292L11.478,7.292C11.806,7.292 12.073,7.559 12.073,7.887Z" style="fill:rgb(13,153,23);"/>
        </g>
        <g transform="matrix(1,0,0,2,757.915962,154.605438)">
            <path d="M12.073,7.887L12.073,12.641C12.073,12.969 11.806,13.236 11.478,13.236L6.724,13.236C6.396,13.236 6.129,12.969 6.129,12.641L6.129,7.887C6.129,7.559 6.396,7.292 6.724,7.292L11.478,7.292C11.806,7.292 12.073,7.559 12.073,7.887Z" style="fill:rgb(13,64,23);"/>
        </g>
        <g transform="matrix(1,0,0,2,755.679166,213.528823)">
            <path d="M12.073,7.887L12.073,12.641C12.073,12.969 11.806,13.236 11.478,13.236L6.724,13.236C6.396,13.236 6.129,12.969 6.129,12.641L6.129,7.887C6.129,7.559 6.396,7.292 6.724,7.292L11.478,7.292C11.806,7.292 12.073,7.559 12.073,7.887Z" style="fill:rgb(13,153,23);"/>
        </g>
        <g transform="matrix(1,0,0,2,779.01278,180.511888)">
            <path d="M12.073,7.887L12.073,12.641C12.073,12.969 11.806,13.236 11.478,13.236L6.724,13.236C6.396,13.236 6.129,12.969 6.129,12.641L6.129,7.887C6.129,7.559 6.396,7.292 6.724,7.292L11.478,7.292C11.806,7.292 12.073,7.559 12.073,7.887Z" style="fill:rgb(13,64,23);"/>
        </g>
        <g transform="matrix(1,0,0,2,784.955911,237.60624)">
            <path d="M12.073,7.887L12.073,12.641C12.073,12.969 11.806,13.236 11.478,13.236L6.724,13.236C6.396,13.236 6.129,12.969 6.129,12.641L6.129,7.887C6.129,7.559 6.396,7.292 6.724,7.292L11.478,7.292C11.806,7.292 12.073,7.559 12.073,7.887Z" style="fill:rgb(13,153,23);"/>
        </g>
        <g transform="matrix(1,0,0,2,757.915962,247.520309)">
            <path d="M12.073,7.887L12.073,12.641C12.073,12.969 11.806,13.236 11.478,13.236L6.724,13.236C6.396,13.236 6.129,12.969 6.129,12.641L6.129,7.887C6.129,7.559 6.396,7.292 6.724,7.292L11.478,7.292C11.806,7.292 12.073,7.559 12.073,7.887Z" style="fill:rgb(13,64,23);"/>
        </g>
        <g transform="matrix(1,0,0,2,743.792905,277.217658)">
            <path d="M12.073,7.887L12.073,12.641C12.073,12.969 11.806,13.236 11.478,13.236L6.724,13.236C6.396,13.236 6.129,12.969 6.129,12.641L6.129,7.887C6.129,7.559 6.396,7.292 6.724,7.292L11.478,7.292C11.806,7.292 12.073,7.559 12.073,7.887Z" style="fill:rgb(13,153,23);"/>
        </g>
        <g transform="matrix(1,0,0,2,757.915962,296.423215)">
            <path d="M12.073,7.887L12.073,12.641C12.073,12.969 11.806,13.236 11.478,13.236L6.724,13.236C6.396,13.236 6.129,12.969 6.129,12.641L6.129,7.887C6.129,7.559 6.396,7.292 6.724,7.292L11.478,7.292C11.806,7.292 12.073,7.559 12.073,7.887Z" style="fill:rgb(13,64,23);"/>
        </g>
        <g transform="matrix(1,0,0,2,773.06965,319.954336)">
            <path d="M12.073,7.887L12.073,12.641C12.073,12.969 11.806,13.236 11.478,13.236L6.724,13.236C6.396,13.236 6.129,12.969 6.129,12.641L6.129,7.887C6.129,7.559 6.396,7.292 6.724,7.292L11.478,7.292C11.806,7.292 12.073,7.559 12.073,7.887Z" style="fill:rgb(13,153,23);"/>
        </g>
        <g transform="matrix(1,0,0,2,749.736035,331.840596)">
            <path d="M12.073,7.887L12.073,12.641C12.073,12.969 11.806,13.236 11.478,13.236L6.724,13.236C6.396,13.236 6.129,12.969 6.129,12.641L6.129,7.887C6.129,7.559 6.396,7.292 6.724,7.292L11.478,7.292C11.806,7.292 12.073,7.559 12.073,7.887Z" style="fill:rgb(13,64,23);"/>
        </g>
        <g transform="matrix(1,0,0,2,773.06965,364.706351)">
            <path d="M12.073,7.887L12.073,12.641C12.073,12.969 11.806,13.236 11.478,13.236L6.724,13.236C6.396,13.236 6.129,12.969 6.129,12.641L6.129,7.887C6.129,7.559 6.396,7.292 6.724,7.292L11.478,7.292C11.806,7.292 12.073,7.559 12.073,7.887Z" style="fill:rgb(13,153,23);"/>
        </g>
        <g transform="matrix(1,0,0,2,757.915962,396.919972)">
            <path d="M12.073,7.887L12.073,12.641C12.073,12.969 11.806,13.236 11.478,13.236L6.724,13.236C6.396,13.236 6.129,12.969 6.129,12.641L6.129,7.887C6.129,7.559 6.396,7.292 6.724,7.292L11.478,7.292C11.806,7.292 12.073,7.559 12.073,7.887Z" style="fill:rgb(13,64,23);"/>
        </g>
        <g transform="matrix(1,0,0,2,743.792905,425.210723)">
            <path d="M12.073,7.887L12.073,12.641C12.073,12.969 11.806,13.236 11.478,13.236L6.724,13.236C6.396,13.236 6.129,12.969 6.129,12.641L6.129,7.887C6.129,7.559 6.396,7.292 6.724,7.292L11.478,7.292C11.806,7.292 12.073,7.559 12.073,7.887Z" style="fill:rgb(13,153,23);"/>
        </g>
        <g transform="matrix(1,0,0,2,757.915962,444.416281)">
            <path d="M12.073,7.887L12.073,12.641C12.073,12.969 11.806,13.236 11.478,13.236L6.724,13.236C6.396,13.236 6.129,12.969 6.129,12.641L6.129,7.887C6.129,7.559 6.396,7.292 6.724,7.292L11.478,7.292C11.806,7.292 12.073,7.559 12.073,7.887Z" style="fill:rgb(13,64,23);"/>
        </g>
    </g>
</svg>
